<!-- Bootstrap Icon -->
<svg width="64" height="64" viewBox="0 0 64 64" fill="none" xmlns="http://www.w3.org/2000/svg">
  <rect width="64" height="64" rx="16" fill="#563D7C"/>
  <path d="M39.5 31.4C42.3 30.1 43.4 27.7 43.4 25.3C43.4 20.7 40.1 18 34.2 18H23.4V47H34.6C40.6 47 43.8 43.8 43.8 38.9C43.8 35.6 42.1 33.4 39.5 31.4ZM30.4 21.5H33.6C36.4 21.5 38 23.1 38 25.3C38 27.4 36.5 29 33.5 29H30.4V21.5ZM33.8 43.1H30.4V35H33.8C36.9 35 38.7 36.7 38.7 39C38.7 41.3 36.9 43.1 33.8 43.1Z" fill="white"/>
</svg>
