<!-- HTML5 Icon -->
<svg width="64" height="64" viewBox="0 0 64 64" fill="none" xmlns="http://www.w3.org/2000/svg">
  <path d="M1.5 0H62.5L58.2 57.8L31.9 64L5.8 57.7L1.5 0Z" fill="#E44D26"/>
  <path d="M31.9 58.6L53.3 53L56.6 4H31.9V58.6Z" fill="#F16529"/>
  <path d="M31.9 26.6H22.2L21.7 20.5H31.9V14.4H15.6L15.7 15.6L17.3 36.2H31.9V26.6ZM31.9 48.3L31.8 48.4L24.7 46.5L24.3 41.3H18.4L19.2 51.9L31.8 55L31.9 55V48.3Z" fill="#EBEBEB"/>
  <path d="M31.9 26.6V36.2H40.3L39.6 46.5L31.9 48.4V55L44.5 51.9L45.6 41.3H39.1L39.4 36.2H45.8L46.6 26.6H31.9ZM31.9 14.4V20.5H47.1L47.2 19.3L47.4 18L47.6 14.4H31.9Z" fill="white"/>
</svg>
